<?xml version="1.0" encoding="utf-8"?>
<!-- Generator: Adobe Illustrator 23.0.6, SVG Export Plug-In . SVG Version: 6.00 Build 0)  -->
<svg version="1.1" id="Capa_1" xmlns="http://www.w3.org/2000/svg" xmlns:xlink="http://www.w3.org/1999/xlink" x="0px" y="0px"
	 viewBox="0 0 112.9 95" style="enable-background:new 0 0 112.9 95;" xml:space="preserve">
<style type="text/css">
	.st0{fill:url(#SVGID_1_);}
</style>
<linearGradient id="SVGID_1_" gradientUnits="userSpaceOnUse" x1="69.8761" y1="83.3833" x2="44.2082" y2="5.4628" gradientTransform="matrix(1 0 0 -1 0 91.8494)">
	<stop  offset="0" style="stop-color:#FFFFFF"/>
	<stop  offset="1" style="stop-color:#FFFFFF"/>
</linearGradient>
<path class="st0" d="M105.8,52c-0.8,2.3-1.8,4.3-3,6c1.2-4.5,1.8-9.1,1.4-14.1C102.5,20.6,83,2.2,59.1,2.2c-15,0-28.3,7.3-36.4,18.5
	c-0.4,0.7-1,1.3-1.4,2.1c-2.8,4.4-4.6,9-5.7,13.9c-0.1-4.1,0.4-8.5,1.8-13.1c-4.2,0.6-7.6,1.5-10.2,3.1l0,0c-2.3,1.3-4.1,3-4.9,4.8
	l0,0C2,31.8,1.9,32,1.8,32.3c-0.1,0.3-0.2,0.8-0.2,1.1c0,0.1,0,0.2,0,0.3c0,0.2-0.1,0.5-0.1,0.8c0,0.1,0,0.2,0,0.3
	c0,0.2,0,0.6,0,0.8c0,0.1,0,0.2,0,0.3c0,0.2,0.1,0.5,0.1,0.8c0,0.1,0.1,0.2,0.1,0.3c0.2,0.6,0.3,0.8,0.4,1.1c0,0.1,0.1,0.2,0.1,0.3
	c0.1,0.3,0.2,0.5,0.3,0.9c0,0.1,0.1,0.2,0.1,0.3c0.1,0.3,0.3,0.7,0.4,1c0,0.1,0.1,0.2,0.1,0.2c0.2,0.3,0.3,0.7,0.5,1
	c0,0.1,0.1,0.1,0.1,0.2c0.2,0.3,0.4,0.7,0.8,1.1c0,0.1,0.1,0.1,0.1,0.2c0.2,0.3,0.5,0.8,0.9,1.1l0.1,0.1c0.3,0.4,0.7,0.8,1,1.2
	l0.1,0.1c0.3,0.4,0.8,0.8,1.1,1.2c0,0,0,0,0.1,0.1c0.4,0.4,0.9,0.9,1.3,1.2l0,0c0.4,0.4,1,0.9,1.4,1.3l0,0c0.6,0.4,1,0.9,1.5,1.3
	l0,0c0.6,0.4,1.1,0.9,1.6,1.3c8.7,6.6,21.3,13,36.1,17.6c2.6,0.9,5.4,1.6,7.9,2.3c-16.4-2.2-30.1-5.1-42.8-13.2
	c5.5,19.2,23.1,33.5,44,33.5c14.7,0,27.7-7,36-17.9c8.6-1.1,14.4-4.1,15.9-8.9C112.5,61.8,110.4,56.9,105.8,52z M54.5,50.9
	c0.3,1,0.9,1.9,1.4,2.5c0.7,0.7,1.3,1.2,2.2,1.5c0.9,0.3,1.8,0.5,2.8,0.5c0.8,0,1.4-0.1,2.1-0.2c0.5-0.1,1.1-0.3,1.7-0.5v-3.6h-2.4
	c-0.3,0-0.7-0.1-0.9-0.3S61,50.3,61,50.1V47h8.6v10.1c-0.7,0.4-1.2,0.9-1.9,1.2c-0.7,0.3-1.4,0.5-2.1,0.8c-0.8,0.2-1.5,0.3-2.4,0.4
	c-0.9,0.1-1.8,0.1-2.8,0.1c-1.8,0-3.4-0.3-4.8-0.9c-1.5-0.7-2.8-1.4-3.8-2.5c-1.1-1.1-2-2.4-2.5-3.8c-0.7-1.5-0.9-3.1-0.9-4.8
	c0-1.8,0.3-3.4,0.9-4.9c0.5-1.5,1.4-2.8,2.5-3.9c1.1-1.1,2.4-2,4-2.5c1.5-0.7,3.3-0.9,5.3-0.9c1,0,2,0.1,2.9,0.2
	c0.9,0.2,1.6,0.4,2.4,0.7c0.8,0.3,1.4,0.7,2.1,1c0.7,0.4,1.2,0.9,1.7,1.3L68.4,41c-0.1,0.2-0.3,0.4-0.6,0.5
	c-0.2,0.1-0.4,0.2-0.7,0.2c-0.3,0-0.7-0.1-1-0.3c-0.4-0.2-0.9-0.4-1.2-0.7c-0.4-0.2-0.8-0.3-1.2-0.4c-0.4-0.1-0.9-0.2-1.3-0.2
	c-0.4,0-1-0.1-1.5-0.1c-1.1,0-2,0.2-2.9,0.5c-0.9,0.3-1.5,0.9-2.1,1.5c-0.5,0.7-1,1.4-1.3,2.4s-0.4,2-0.4,3.2
	C54,48.8,54.2,49.9,54.5,50.9z"/>
</svg>
